<?xml version="1.0" encoding="utf-8"?>
<!-- Generator: Adobe Illustrator 24.1.2, SVG Export Plug-In . SVG Version: 6.00 Build 0)  -->
<svg version="1.1" id="Layer_1" xmlns="http://www.w3.org/2000/svg" xmlns:xlink="http://www.w3.org/1999/xlink" x="0px" y="0px"
	 viewBox="0 0 168.98 93.54" style="enable-background:new 0 0 168.98 93.54;" xml:space="preserve">
<style type="text/css">
	.st0{fill:#FFFFFF;}
	.st1{fill:#623F99;}
	.st2{fill:#B2D235;}
</style>
<g>
	<path class="st0" d="M84.8,93.54c-15.79,0-29.33-7.82-35.34-20.41c-1.17-2.45-1.04-5.12,0.35-7.33c0.01-0.02,0.03-0.04,0.04-0.07
		c-0.15-0.2-0.29-0.41-0.43-0.63c-0.31,1.01-0.81,1.92-1.49,2.71c-1.07,1.25-3.09,2.74-6.58,2.74c-4.03,0-6.4-2.14-7.82-4.59
		c-0.32,1.13-0.69,2.27-1.11,3.41c-1.18,3.18-4.3,11.61-11.15,11.61h0C12,80.99,9.56,66.25,9.56,58.46c0-10.93,5.16-12.62,7.8-12.76
		c0-0.04,0-0.08,0-0.12l-1.89,0c-5.27,0-7.96-3.59-8.22-6.92c-0.12-1.56,0.25-3.07,0.99-4.39c-0.52-0.19-1.01-0.42-1.49-0.67
		c-4.4-2.4-6.93-6.63-6.75-11.32C0.2,17.08,3.68,12.2,8.86,9.85C14.4,7.35,30.2,6.68,37.77,6.68c11.13,0,13,1.12,14.11,1.78
		c0.64,0.39,1.2,0.79,1.68,1.2c1.47-1.14,2.65-1.98,3.65-2.7c1.9-1.37,3.05-2.2,4.83-4C62.84,2.15,64.96,0,68.13,0
		c1.2,0,5.26,0.41,6.91,5.64c2.29,7.28,3.96,17.61-1.13,25.42c-0.12,0.19-0.25,0.37-0.38,0.56c1.3-0.38,2.59-0.6,3.85-0.6
		c3.51,0,6.52,1.55,8.47,4.37c0.18,0.26,0.35,0.53,0.51,0.78c3.85-3.33,8.52-5.67,12.58-5.67c2.54,0,4.82,0.81,6.65,2.32
		c0.33-2.35,0.7-4.66,1.1-6.92c0.05-0.26,0.1-0.61,0.16-1.03c0.9-5.85,2.56-16.71,10.69-16.85c0.14-0.01,0.28-0.01,0.41-0.01
		c2.76,0,5.21,1.13,6.89,3.17c2.9,3.52,2.65,8.65,1.93,12.32c-0.67,3.43-1.79,6.78-2.87,10.01c-0.16,0.47-0.31,0.94-0.47,1.41
		c1.8-0.94,3.89-1.48,5.89-1.48c2.89,0,5.34,1.13,6.86,3.12c1.19-1.09,2.47-2.03,3.8-2.77c2.56-1.44,5.36-2.2,8.1-2.2
		c4.12,0,7.72,1.74,10.15,4.89c0.13,0.11,0.88,0.57,1.38,0.88c2.27,1.39,6.48,3.97,6.56,9.29c0.04,1.06,0.05,2.08,0.06,3.09
		c0.02,3.65,0.04,6.07,1.9,9.11l0.85,1.39v1.63c0,0.4-0.03,0.78-0.1,1.15c-0.57,4.44-4.38,7.61-9.29,7.61l0,0
		c-1.56,0-3.09-0.32-4.43-0.92c-1.81-0.81-3.11-2.02-4.07-3.35c-2.8,2.24-5.97,4.27-9.88,4.27c-2.11,0-4.07-0.59-5.88-1.75
		c-1.34,1.05-2.99,1.62-4.8,1.62h0c-2.62,0-5.33-1.17-8.58-3.83c0.65,1.63,0.66,3.44-0.01,5.08c-5.18,12.77-19.81,21.53-36.41,21.78
		L84.8,93.54z"/>
	<g>
		<g>
			<g>
				<path class="st1" d="M37.19,35.14c-4.19-0.08-6.26,1.33-6.26-3.32c0-2.56,1.32-12.75-4.56-9.29
					c-5.05,2.97-1.49,10.22-3.34,12.02c-1.59,1.55-5.6,0.86-7.65,1.18c-2.78,0.44-3.56,4.07,0.09,4.07c7.74,0,7.68-0.46,7.68,8.3
					c0,6.14,0.43,10.07-0.28,16.22c-1.75,15.13-4.79-12.86-5.09-12.86c-6.12,0,0.18,40.29,9.22,15.91
					c2.72-7.35,2.93-14.83,2.93-22.55c0-3.37-0.72-6.29,3.5-6.18C38.38,38.76,40.85,35.2,37.19,35.14
					C35.83,35.11,39.69,35.18,37.19,35.14z"/>
				<path class="st1" d="M11.24,15.12c-5.86,2.65-7.86,10.06-1.71,13.41c3.48,1.9,9.9-0.08,5.97-3.52c-1.62-1.4,3.95-3.1,4.59-3.29
					c7.71-2.22,12.7-1.81,19.16-1.73c8.24,0.1,14.94-3.41,9.66-6.57C45.92,11.63,17.17,12.44,11.24,15.12z"/>
			</g>
			<path class="st1" d="M50.99,48.97c0,4.53-5.41,0.61-6.63-0.27c-3.31,0-0.56,11.74-0.43,12.64c0.32,2.13-0.11,3.44-2.59,3.44
				c-3.51,0-3.91-4.7-4.43-7.14c-0.37-1.77-4.96-12.77-4.66-13.18c4.53-6.24,6.61-1.87,8.84,3.11c1.45-2.51,0.63-10.37,4.6-10.37
				C49.65,37.2,49.87,46.07,50.99,48.97C50.99,49.31,50.65,48.09,50.99,48.97z"/>
			<g>
				<path class="st1" d="M61.55,58.21c-4.57-4.09,0.31-15.76,0.31-20.91c-0.09-2.14-12.12,2.95-9.49,7.5
					c1.76,3.04,0.7,8.16,0.7,11.66C53.07,69.69,65.6,61.84,61.55,58.21C60.59,57.36,62.5,59.06,61.55,58.21z"/>
			</g>
			<path class="st2" d="M85.28,57.48c0,5.09-4.9,16.29-11.08,16.29c-4.96,0-11.59-10.54-6.69-14.42c3.11-2.47,2.72,8.58,4.52,9.85
				c4.38,3.08,7.64-8.44,5.57-11.4c-3.42-4.91-17.61-0.02-14.71-10c1.36-4.69,13.95-15.27,18.2-9.12c4.7,6.72-6.63,5.91-9.39,8.98
				C68.91,50.77,85.28,51.73,85.28,57.48z"/>
			<path class="st2" d="M106.99,57.07c0,5.09-4.9,16.29-11.08,16.29c-4.96,0-11.59-10.54-6.69-14.42c3.75-2.98,2.61,6.77,3.37,8.39
				c3.03,6.38,8.75-4.73,7.15-8.53c0-6.66-15.48-0.92-15.48-9.04c0-5.99,13.86-18.28,18.54-11.49c4.7,6.72-6.63,5.91-9.39,8.98
				C90.27,50.74,106.99,51.59,106.99,57.07z"/>
			<path class="st1" d="M133.03,59.98c0,11.94-11.99-2.12-14.2-4.64c-1.42,2.16-9.9,15.85-9.68,5.42
				c0.23-11.1,1.28-22.91,3.23-33.85c0.46-2.56,1.59-13.11,5.33-13.11c4.45-0.24,3.96,5.75,3.4,8.6
				c-1.83,9.36-7.73,19.09-5.55,28.86c2.6-3.76,5.99-7.39,9.47-10.47c2.61-2.31,8.91-2.49,6.28,2.41c-1.56,2.91-4.97,3.97-6.9,6.53
				C122.07,52.86,131.28,58.55,133.03,59.98C133.03,61.21,130.95,58.28,133.03,59.98z"/>
			<path class="st1" d="M163.2,61.87c0,3.05-3.68,3.47-5.68,2.57c-2.66-1.19-3.14-4.9-4.07-7.31c-5.94,3.68-11.98,13.4-18.34,3.2
				c-4.38-7.03,1.23-17.85,7.71-21.5c3.47-1.96,8.16-2.3,10.83,1.17c1.82,2.39,6.74,3.29,6.74,6.79
				C160.62,51.99,159.83,56.37,163.2,61.87C163.2,62.72,162.55,60.81,163.2,61.87z M153.7,46.8c-0.02-3.05-5.86-4.61-7.9-3.33
				c-3.26,2.06-4.92,5.93-4.92,9.63C140.88,64.31,153.76,54.98,153.7,46.8z"/>
			<path class="st1" d="M109.68,70.23c-3.41,8.4-12.57,13.46-23.88,13.29c-11.35-0.18-20.18-5.7-24.24-14.34
				c-1.33-2.83-8.47-1.83-6.89,1.47c5.01,10.49,16.8,17.33,30.77,17.12c14.09-0.22,26.8-7.49,31.14-18.18
				C117.39,67.57,111.43,65.67,109.68,70.23L109.68,70.23z"/>
		</g>
		<path class="st2" d="M51.56,29.61c-1.36-3.04-2.61-8.81,3.74-13.95c5.61-4.53,7.28-5.01,10.86-8.65c1.18-1.2,2.56-2.18,3.36,0.36
			c2.52,8,5.57,24.81-12.3,26.81c-0.73,0.08-2.62-0.02-2.34-1.7c0.26-1.54,0.79-3.93,2.92-6.54c3.72-4.56,7.65-8.67,8.45-12.01
			c0,0-2.48,4.24-7.54,8.71c-3.02,2.67-4.55,5.4-5.29,7.17C52.92,31.01,52.16,30.95,51.56,29.61z"/>
	</g>
</g>
</svg>
